<svg xmlns="http://www.w3.org/2000/svg" viewBox="0 0 24 24" id="internet">
  <path d="M12.9 2h-1.8C5.9 2.5 2 6.8 2 12v1c.4 4.8 4.2 8.6 9 9h1.8c5.2-.5 9.1-4.7 9.1-10 0-.7-.1-1.3-.2-1.9-.7-4.3-4.3-7.6-8.8-8.1zM12 5c1.6 1.6 2.6 3.7 2.8 6H9.2c.2-2.2 1.2-4.3 2.8-6zm-7.9 6c0-.2 0-.3.1-.5 0-.1 0-.2.1-.3 0-.1.1-.3.1-.4 0-.1.1-.2.1-.3 0-.1.1-.3.1-.4 0-.1.1-.2.1-.3.1-.1.1-.3.2-.4 0-.1.1-.2.1-.2 0-.2.1-.3.2-.4 0-.1.1-.1.1-.2.1-.1.2-.3.3-.4 0-.1.1-.1.2-.2 0-.1.1-.2.2-.4 0-.1.1-.1.2-.2l.4-.4c0 .1.1 0 .1 0 .1-.1.3-.2.4-.3.1 0 .1-.1.2-.1.1-.1.3-.2.4-.3.1 0 .1-.1.2-.1.1-.1.3-.2.4-.3.1 0 .1-.1.2-.1.2-.1.3-.1.5-.2.1 0 .1-.1.2-.1.2-.1.3-.1.5-.2.1 0 .2 0 .2-.1h.1c-1.6 2-2.6 4.3-2.8 6.8H4.1zm5.9 8.7c-.1 0-.2-.1-.3-.1-.1 0-.2-.1-.4-.1-.1 0-.2-.1-.3-.1-.1 0-.2-.1-.3-.2-.1 0-.2-.1-.3-.2-.2 0-.3 0-.4-.1-.1-.1-.2-.1-.3-.2-.1-.1-.2-.1-.3-.2-.1-.1-.2-.1-.3-.2-.1-.1-.2-.2-.3-.2-.1-.1-.2-.1-.3-.2l-.3-.3-.2-.2c-.1-.1-.2-.2-.2-.3-.1-.1-.1-.2-.2-.3-.1-.1-.1-.2-.2-.3-.1-.1-.1-.2-.2-.3-.1-.1-.1-.2-.2-.3-.1-.1-.1-.2-.2-.3-.1-.1-.1-.2-.2-.4 0-.1-.1-.2-.1-.3 0-.1-.1-.3-.1-.4 0-.1-.1-.2-.1-.3 0-.1-.1-.3-.1-.4 0-.1 0-.2-.1-.3 0-.2 0-.3-.1-.5h3.1c.3 2.5 1.3 4.8 2.9 6.7zm2-.7c-1.6-1.6-2.6-3.7-2.8-6h5.6c-.2 2.2-1.2 4.3-2.8 6zm7.9-6c0 .2 0 .3-.1.5 0 .1 0 .2-.1.3 0 .1-.1.3-.1.4 0 .1-.1.2-.1.3 0 .1-.1.3-.1.4 0 .1-.1.2-.1.3-.1.1-.1.3-.2.4 0 .1-.1.2-.1.2-.1.1-.1.3-.2.4 0 .1-.1.1-.1.2-.1.1-.2.3-.3.4 0 .1-.1.1-.2.2s-.2.3-.3.4c0 .1-.1.1-.2.2l-.4.4c-.1 0-.1.1-.2.1-.1.1-.3.2-.4.3-.1 0-.1.1-.2.1-.1.1-.3.2-.4.3-.1 0-.1.1-.2.1-.2.1-.3.2-.5.3-.1 0-.1.1-.2.1-.2.1-.3.1-.5.2-.1 0-.1.1-.2.1-.2.1-.3.1-.5.2-.1 0-.2 0-.2.1h-.1c1.6-1.9 2.6-4.2 2.8-6.7l3.4-.2zm-3.1-2c-.2-2.5-1.2-4.9-2.8-6.7.1 0 .2.1.3.1.1 0 .2.1.4.1.1 0 .2.1.3.1.1 0 .2.1.3.2.1 0 .2.1.3.2.2 0 .3 0 .4.1.1.1.2.1.3.2.1.1.2.1.3.2.1.1.2.1.3.2.1.1.2.2.3.2.1.1.2.1.3.2l.3.3.2.2c.1.1.2.2.2.3.1.1.1.2.2.3.1.1.1.2.2.3.1.1.1.2.2.3.1.1.1.2.2.3.1.1.1.2.2.3.1.1.1.2.2.4 0 .1.1.2.1.3 0 .1.1.3.1.4 0 .1.1.2.1.3 0 .1.1.3.1.4 0 .1 0 .2.1.3 0 .2 0 .3.1.5h-3.2z"></path>
</svg>
